<svg width="26" height="44" viewBox="0 0 26 44" fill="none" xmlns="http://www.w3.org/2000/svg">
<path d="M1.74899 20.1947L1.7494 20.1943L20.2506 1.74425L20.2508 1.74404C21.2479 0.75023 22.8621 0.752099 23.8572 1.74899L23.8574 1.74922C24.8524 2.74668 24.8495 4.36186 23.8525 5.35625L23.8524 5.35627L7.16257 22.0001L23.853 38.6438L23.8532 38.6439C24.8501 39.6383 24.8529 41.2528 23.8581 42.2503L23.8578 42.2506C23.3596 42.7497 22.7044 43 22.0519 43C21.4012 43 20.7483 42.7514 20.2509 42.2555L20.2507 42.2553L1.75023 23.8066C1.26904 23.3279 0.999752 22.6772 0.999752 22.0001C0.999752 21.3218 1.27029 20.6726 1.74899 20.1947Z"  fill="#0F4C81" stroke="white" stroke-width="2"/>
</svg>
