<svg width="27" height="44" viewBox="0 0 27 44" fill="none" xmlns="http://www.w3.org/2000/svg">
<path d="M24.6553 20.1947L24.6549 20.1943L6.15372 1.74425L6.15351 1.74404C5.15635 0.75023 3.54221 0.752099 2.54712 1.74899L2.54689 1.74922C1.55188 2.74668 1.55475 4.36186 2.55184 5.35625L2.55186 5.35627L19.2417 22.0001L2.55125 38.6438L2.55113 38.6439C1.55424 39.6383 1.55136 41.2528 2.54617 42.2503L2.54649 42.2506C3.04466 42.7497 3.69989 43 4.35244 43C5.00309 43 5.65595 42.7514 6.15343 42.2556L6.15363 42.2554L24.6541 23.8066C25.1353 23.3279 25.4045 22.6772 25.4045 22.0001C25.4045 21.3218 25.134 20.6726 24.6553 20.1947Z" fill="#7EC845" stroke="white" stroke-width="2"/>
</svg>
