<svg width="27" height="44" viewBox="0 0 27 44" fill="none" xmlns="http://www.w3.org/2000/svg">
<path d="M24.6563 20.1947L24.6559 20.1943L6.15469 1.74425L6.15448 1.74404C5.15733 0.75023 3.54319 0.752099 2.54809 1.74899L2.54787 1.74922C1.55285 2.74668 1.55573 4.36186 2.55282 5.35625L2.55284 5.35627L19.2427 22.0001L2.55223 38.6438L2.5521 38.6439C1.55521 39.6383 1.55234 41.2528 2.54715 42.2503L2.54747 42.2506C3.04564 42.7497 3.70086 43 4.35341 43C5.00407 43 5.65693 42.7514 6.15441 42.2556L6.1546 42.2554L24.655 23.8066C25.1362 23.3279 25.4055 22.6772 25.4055 22.0001C25.4055 21.3218 25.135 20.6726 24.6563 20.1947Z" fill="#0F4C81" stroke="white" stroke-width="2"/>
</svg>
