<svg width="26" height="44" viewBox="0 0 26 44" fill="none" xmlns="http://www.w3.org/2000/svg">
<path d="M1.74997 20.1947L1.75038 20.1943L20.2516 1.74425L20.2518 1.74404C21.2489 0.75023 22.8631 0.752099 23.8582 1.74899L23.8584 1.74922C24.8534 2.74668 24.8505 4.36186 23.8534 5.35625L23.8534 5.35627L7.16354 22.0001L23.854 38.6438L23.8541 38.6439C24.851 39.6383 24.8539 41.2528 23.8591 42.2503L23.8588 42.2506C23.3606 42.7497 22.7054 43 22.0528 43C21.4022 43 20.7493 42.7514 20.2518 42.2555L20.2516 42.2553L1.75121 23.8066C1.27001 23.3279 1.00073 22.6772 1.00073 22.0001C1.00073 21.3218 1.27126 20.6726 1.74997 20.1947Z" fill="#7EC845" stroke="white" stroke-width="2"/>
</svg>
