<svg
  id="Слой_1"
  data-name="Слой 1"
  xmlns="http://www.w3.org/2000/svg"
  viewBox="0 0 262.06 95.25"
>
  <defs>
    <style>
      .cls-1 {
        fill: #363838;
      }
      .cls-2 {
        fill: #fff;
      }

    </style>
    

    

<linearGradient id="id_1" x1="20%" y1="0%" x2="20%" y2="100%" > 
            
            <stop offset="0%" stop-color="#7EC845 ">
                <animate attributeName="stop-color" values="#0F4C81; #7EC845; #0F4C81" dur="3s" repeatCount="indefinite"></animate>
            </stop>

            <stop offset="100%" stop-color="#0F4C81">
                <animate attributeName="stop-color" values="#7EC845; #0F4C81; #7EC845" dur="3s" repeatCount="indefinite"></animate>
            </stop>

        </linearGradient> 
  </defs>
  <title>border</title>
  <path
    class="cls-1"
    d="M76.36,24.92a.51.51,0,0,1-.5-.5V6.22a.5.5,0,0,1,.5-.5h6.72l.69,0a11.87,11.87,0,0,1,7.45,2.64,8.84,8.84,0,0,1,3,7.05A8.45,8.45,0,0,1,93.53,19,8.54,8.54,0,0,1,91.45,22a11,11,0,0,1-3.38,2.08,12,12,0,0,1-4.35.81Zm6.16-5,.42,0a5.79,5.79,0,0,0,3.55-1.23,4.35,4.35,0,0,0,1.06-1.49,4.27,4.27,0,0,0,.35-1.83,4.6,4.6,0,0,0-.32-2,4.49,4.49,0,0,0-1.12-1.63,5.58,5.58,0,0,0-3.24-1,3.7,3.7,0,0,0-.47,0H82v9.17Z"
    transform="translate(1.06 1)"
  />
  <path
    class="cls-2"
    d="M83.77,6.2a11.32,11.32,0,0,1,7.14,2.53,8.36,8.36,0,0,1,2.13,3,8.24,8.24,0,0,1,.63,3.64,8.08,8.08,0,0,1-.6,3.43,8.19,8.19,0,0,1-2,2.87,10.22,10.22,0,0,1-3.21,2,11.64,11.64,0,0,1-4.17.78H76.36V6.22h6.72l.69,0M81.49,20.41h1l.42,0a6.19,6.19,0,0,0,3.85-1.34A4.72,4.72,0,0,0,88,17.41a4.79,4.79,0,0,0,.39-2,4.91,4.91,0,0,0-.35-2.18,5,5,0,0,0-1.26-1.81,6,6,0,0,0-3.57-1.16,4.35,4.35,0,0,0-.51,0H81.49V20.41M83.78,5.2h0l-.72,0H76.36a1,1,0,0,0-1,1v18.2a1,1,0,0,0,1,1h7.36a12.72,12.72,0,0,0,4.53-.84,11.32,11.32,0,0,0,3.52-2.17,9.22,9.22,0,0,0,2.91-7A9.37,9.37,0,0,0,91.58,8l0,0A12.4,12.4,0,0,0,83.78,5.2Zm-1.29,6h.31a3,3,0,0,1,.42,0,5.08,5.08,0,0,1,2.94.93,4.15,4.15,0,0,1,1,1.42,4,4,0,0,1,.28,1.74v.08A3.72,3.72,0,0,1,87.09,17a3.85,3.85,0,0,1-.94,1.32,5.24,5.24,0,0,1-3.21,1.1h-.45V11.24Z"
    transform="translate(1.06 1)"
  />
  <path
    class="cls-1"
    d="M106.92,25.33a13.11,13.11,0,0,1-8.09-2.8,9.49,9.49,0,0,1-2.46-3.24,9.36,9.36,0,0,1-.83-4,9.46,9.46,0,0,1,.83-3.88,8.9,8.9,0,0,1,2.45-3.31,13,13,0,0,1,16.19,0,9.23,9.23,0,0,1,2.47,3.41,9.46,9.46,0,0,1,0,7.75A9.27,9.27,0,0,1,115,22.51,13.07,13.07,0,0,1,106.92,25.33Zm.27-5.59a5.07,5.07,0,0,0,3.38-1.29A4,4,0,0,0,112,15.34a3.88,3.88,0,0,0-.36-1.72,4,4,0,0,0-1.06-1.39,5.33,5.33,0,0,0-3.52-1.33h-.36a5.18,5.18,0,0,0-3.46,1.32,4.23,4.23,0,0,0-1.08,1.44,4.19,4.19,0,0,0-.36,1.75,4,4,0,0,0,.37,1.67,4,4,0,0,0,1,1.34,5.37,5.37,0,0,0,3.51,1.32h.45Z"
    transform="translate(1.06 1)"
  />
  <path
    class="cls-2"
    d="M106.92,5.82a12.57,12.57,0,0,1,7.78,2.7A8.66,8.66,0,0,1,117,11.73a8.94,8.94,0,0,1,0,7.35,8.88,8.88,0,0,1-2.31,3.05,12.56,12.56,0,0,1-15.56,0,8.76,8.76,0,0,1-3.1-6.8,9,9,0,0,1,.79-3.68,8.41,8.41,0,0,1,2.31-3.13,12.57,12.57,0,0,1,7.78-2.7m-.18,14.42h.45a5.53,5.53,0,0,0,3.71-1.42,4.57,4.57,0,0,0,1.2-1.56,4.74,4.74,0,0,0,.41-1.93,4.39,4.39,0,0,0-.41-1.92,4.17,4.17,0,0,0-1.2-1.56,5.76,5.76,0,0,0-3.83-1.45h-.36a5.64,5.64,0,0,0-3.79,1.45,4.39,4.39,0,0,0-1.2,1.6,4.6,4.6,0,0,0-.41,2,4.37,4.37,0,0,0,.42,1.88,4.31,4.31,0,0,0,1.19,1.52,5.84,5.84,0,0,0,3.82,1.43m.18-15.42a13.59,13.59,0,0,0-8.4,2.91,9.52,9.52,0,0,0-2.61,3.53A9.79,9.79,0,0,0,95,15.33a9.74,9.74,0,0,0,.88,4.17,9.85,9.85,0,0,0,2.57,3.4,13.59,13.59,0,0,0,16.83,0,10,10,0,0,0,2.6-3.43,9.79,9.79,0,0,0,.88-4.17,10,10,0,0,0-.87-4,9.86,9.86,0,0,0-2.57-3.57,13.66,13.66,0,0,0-8.44-2.94Zm-.18,14.42a4.82,4.82,0,0,1-3.17-1.19,3.47,3.47,0,0,1-.94-1.19,3.43,3.43,0,0,1-.32-1.44,3.58,3.58,0,0,1,.32-1.56,3.62,3.62,0,0,1,.94-1.26,4.68,4.68,0,0,1,3.14-1.2h.36a4.74,4.74,0,0,1,3.17,1.2,3.4,3.4,0,0,1,1.27,2.72,3.51,3.51,0,0,1-1.25,2.74,4.59,4.59,0,0,1-3.07,1.18h-.45Z"
    transform="translate(1.06 1)"
  />
  <path
    class="cls-1"
    d="M139.35,24.92a.5.5,0,0,1-.49-.44l-1.21-8.78-4.11,8.92a.5.5,0,0,1-.45.3h-2a.51.51,0,0,1-.46-.3l-3.88-8.92-1.4,8.79a.51.51,0,0,1-.5.43h-5.09a.53.53,0,0,1-.39-.18.51.51,0,0,1-.1-.41l3.34-18.2a.49.49,0,0,1,.49-.41h5.06a.5.5,0,0,1,.47.31l3.53,8.56L135.94,6a.51.51,0,0,1,.46-.3h5a.51.51,0,0,1,.5.42l2.95,18.2a.46.46,0,0,1-.11.4.49.49,0,0,1-.38.18Z"
    transform="translate(1.06 1)"
  />
  <path
    class="cls-2"
    d="M141.44,6.22l3,18.2h-5.05l-1.44-10.48-4.82,10.48h-2l-4.57-10.48-1.67,10.48h-5.09l3.34-18.2h5.06l4,9.64,4.23-9.64h5m0-1h-5a1,1,0,0,0-.92.6l-3.28,7.49-3.09-7.47a1,1,0,0,0-.93-.62h-5.06a1,1,0,0,0-1,.82l-3.35,18.19a1,1,0,0,0,1,1.19h5.09a1,1,0,0,0,1-.85l1.13-7.1,3.2,7.34a1,1,0,0,0,.92.61h2a1,1,0,0,0,.9-.59l3.4-7.37,1,7.09a1,1,0,0,0,1,.87h5.05a1,1,0,0,0,1-1.17l-3-18.19a1,1,0,0,0-1-.84Z"
    transform="translate(1.06 1)"
  />
  <path
    class="cls-1"
    d="M161,24.92a.5.5,0,0,1-.46-.32l-1.1-2.74h-6.48l-1.19,2.75a.5.5,0,0,1-.46.31h-5.42a.5.5,0,0,1-.41-.23.52.52,0,0,1,0-.47L153,6a.5.5,0,0,1,.46-.31H159a.49.49,0,0,1,.46.31l7.43,18.2a.47.47,0,0,1-.05.46.49.49,0,0,1-.41.23Zm-3.29-7.66-1.49-4-1.45,4Z"
    transform="translate(1.06 1)"
  />
  <path
    class="cls-2"
    d="M159,6.22l7.43,18.2H161l-1.22-3.06H152.6l-1.32,3.06h-5.42l7.57-18.2H159m-5,11.54h4.37l-2.22-5.9L154,17.76m5-12.54h-5.58a1,1,0,0,0-.92.62L144.94,24a1,1,0,0,0,.92,1.39h5.42a1,1,0,0,0,.92-.61l1.06-2.45h5.81l1,2.43a1,1,0,0,0,.93.63h5.47a1,1,0,0,0,.83-.45,1,1,0,0,0,.09-.93l-7.42-18.2a1,1,0,0,0-.93-.62Zm-3.55,11.54.74-2,.76,2Z"
    transform="translate(1.06 1)"
  />
  <path
    class="cls-1"
    d="M168.77,24.92a.5.5,0,0,1-.5-.5V6.22a.5.5,0,0,1,.5-.5h5.14a.5.5,0,0,1,.5.5V19.93h4V6.22a.5.5,0,0,1,.5-.5H184a.5.5,0,0,1,.5.5V19.93h4V6.22a.5.5,0,0,1,.5-.5h5.16a.5.5,0,0,1,.5.5v18.2a.51.51,0,0,1-.5.5Z"
    transform="translate(1.06 1)"
  />
  <path
    class="cls-2"
    d="M194.15,6.22v18.2H168.77V6.22h5.14V20.43h5V6.22H184V20.43h5V6.22h5.16m0-1H189a1,1,0,0,0-1,1V19.43h-3V6.22a1,1,0,0,0-1-1h-5.14a1,1,0,0,0-1,1V19.43h-3V6.22a1,1,0,0,0-1-1h-5.14a1,1,0,0,0-1,1v18.2a1,1,0,0,0,1,1h25.38a1,1,0,0,0,1-1V6.22a1,1,0,0,0-1-1Z"
    transform="translate(1.06 1)"
  />
  <path
    class="cls-1"
    d="M210.74,24.92a.5.5,0,0,1-.5-.5V17.55h-6.4v6.87a.5.5,0,0,1-.5.5h-5.11a.51.51,0,0,1-.5-.5V6.22a.5.5,0,0,1,.5-.5h5.11a.5.5,0,0,1,.5.5v6.3h6.4V6.22a.5.5,0,0,1,.5-.5h5.14a.5.5,0,0,1,.5.5v18.2a.5.5,0,0,1-.5.5Z"
    transform="translate(1.06 1)"
  />
  <path
    class="cls-2"
    d="M215.88,6.22v18.2h-5.14V17.05h-7.4v7.37h-5.11V6.22h5.11V13h7.4V6.22h5.14m0-1h-5.14a1,1,0,0,0-1,1V12h-5.4V6.22a1,1,0,0,0-1-1h-5.11a1,1,0,0,0-1,1v18.2a1,1,0,0,0,1,1h5.11a1,1,0,0,0,1-1V18.05h5.4v6.37a1,1,0,0,0,1,1h5.14a1,1,0,0,0,1-1V6.22a1,1,0,0,0-1-1Z"
    transform="translate(1.06 1)"
  />
  <path
    class="cls-1"
    d="M232.74,24.92a.5.5,0,0,1-.5-.5V14.65l-6.48,10a.5.5,0,0,1-.42.23h-5.23a.5.5,0,0,1-.5-.5l-.08-18.2a.46.46,0,0,1,.14-.35.48.48,0,0,1,.36-.15h5.14a.5.5,0,0,1,.5.5V16l6.47-10a.5.5,0,0,1,.42-.23h5.32a.5.5,0,0,1,.5.5v18.2a.5.5,0,0,1-.5.5Z"
    transform="translate(1.06 1)"
  />
  <path
    class="cls-2"
    d="M237.88,6.22v18.2h-5.14V13l-7.39,11.46h-5.24L220,6.22h5.15V17.68l7.39-11.46h5.32m0-1h-5.32a1,1,0,0,0-.84.46l-5.55,8.61V6.22a1,1,0,0,0-1-1H220a1,1,0,0,0-1,1l.09,18.2a1,1,0,0,0,1,1h5.24a1,1,0,0,0,.84-.46l5.55-8.61v8.07a1,1,0,0,0,1,1h5.14a1,1,0,0,0,1-1V6.22a1,1,0,0,0-1-1Z"
    transform="translate(1.06 1)"
  />
  <path
    class="cls-1"
    d="M254.57,24.92a.5.5,0,0,1-.5-.5V14.65l-6.48,10a.5.5,0,0,1-.42.23h-5.24a.51.51,0,0,1-.5-.5V6.22a.5.5,0,0,1,.5-.5h5.15a.5.5,0,0,1,.5.5V16l6.47-10a.5.5,0,0,1,.42-.23h5.24a.5.5,0,0,1,.5.5v18.2a.5.5,0,0,1-.5.5Zm-3.5-19.86h-.78a8.76,8.76,0,0,1-3.56-.76A5.31,5.31,0,0,1,244,1.38a.48.48,0,0,1,0-.39.53.53,0,0,1,.29-.26l3.44-1.2a.47.47,0,0,1,.17,0,.59.59,0,0,1,.22,0,.5.5,0,0,1,.25.3,1.94,1.94,0,0,0,.76,1,2.59,2.59,0,0,0,1.33.35h.34a2.81,2.81,0,0,0,1.39-.37,2,2,0,0,0,.73-1,.5.5,0,0,1,.25-.3.59.59,0,0,1,.22,0,.51.51,0,0,1,.17,0L257,.73a.51.51,0,0,1,.29.27.46.46,0,0,1,0,.38,5.28,5.28,0,0,1-2.68,2.91A8.7,8.7,0,0,1,251.07,5.06Z"
    transform="translate(1.06 1)"
  />
  <path
    class="cls-2"
    d="M253.44,0l3.42,1.21a4.8,4.8,0,0,1-2.42,2.63,8.17,8.17,0,0,1-3.37.72h-.78a8.32,8.32,0,0,1-3.36-.72,4.84,4.84,0,0,1-2.42-2.63L248,0a2.48,2.48,0,0,0,.94,1.29,3.33,3.33,0,0,0,1.62.43h.34a3.37,3.37,0,0,0,1.64-.43A2.5,2.5,0,0,0,253.44,0m6.27,6.22v18.2h-5.14V13l-7.4,11.47h-5.24V6.22h5.15V17.68l7.39-11.46h5.24M253.44-1a1,1,0,0,0-.45.11,1,1,0,0,0-.5.59,1.42,1.42,0,0,1-.53.74,2.26,2.26,0,0,1-1.11.28h-.34a2.18,2.18,0,0,1-1.08-.28,1.42,1.42,0,0,1-.53-.74,1,1,0,0,0-.51-.59,1,1,0,0,0-.45-.11,1,1,0,0,0-.33.06L244.17.26a1,1,0,0,0-.57.52,1,1,0,0,0,0,.78,5.78,5.78,0,0,0,2.93,3.18,9.14,9.14,0,0,0,3.79.82h.78a9.14,9.14,0,0,0,3.78-.81,5.73,5.73,0,0,0,3-3.19,1,1,0,0,0,0-.78,1,1,0,0,0-.57-.52l-3.43-1.2a.92.92,0,0,0-.33-.06Zm6.27,6.22h-5.24a1,1,0,0,0-.84.46l-5.55,8.61V6.22a1,1,0,0,0-1-1h-5.15a1,1,0,0,0-1,1v18.2a1,1,0,0,0,1,1h5.24A1,1,0,0,0,248,25l5.56-8.61v8.07a1,1,0,0,0,1,1h5.14a1,1,0,0,0,1-1V6.22a1,1,0,0,0-1-1Z"
    transform="translate(1.06 1)"
  />
  <path
    class="cls-1"
    d="M93.72,67.65a21.83,21.83,0,0,1-14.13-5.19,17,17,0,0,1-4.47-5.89,16.83,16.83,0,0,1-1.52-7.23,17.44,17.44,0,0,1,1.49-7.11,17,17,0,0,1,4.48-6.06A21.84,21.84,0,0,1,93.7,31l.8,0,.76,0a21.89,21.89,0,0,1,14.14,5.2,17.15,17.15,0,0,1,4.47,6.06,17.62,17.62,0,0,1,1.54,7.11,16.91,16.91,0,0,1-6,13.12,21.84,21.84,0,0,1-14.14,5.19H93.72Zm1.21-9.51a9.94,9.94,0,0,0,6.67-2.55A8.22,8.22,0,0,0,103.71,46a7.93,7.93,0,0,0-2.1-2.77,10.43,10.43,0,0,0-7-2.66h-.53a10.14,10.14,0,0,0-6.76,2.58,8.2,8.2,0,0,0-2.77,6.32,7.67,7.67,0,0,0,2.76,6.06,10.36,10.36,0,0,0,6.87,2.6h.72Z"
    transform="translate(1.06 1)"
  />
  <path
    class="cls-2"
    d="M93.7,31.47l.78,0,.77,0a21.35,21.35,0,0,1,13.82,5.08,16.48,16.48,0,0,1,4.34,5.88,17.18,17.18,0,0,1,1.5,6.91,16.36,16.36,0,0,1-5.82,12.73,21.33,21.33,0,0,1-13.82,5.08H93.72a21.24,21.24,0,0,1-13.8-5.08A16.36,16.36,0,0,1,74.1,49.34a17.15,17.15,0,0,1,1.44-6.91,16.41,16.41,0,0,1,4.36-5.88,21.31,21.31,0,0,1,13.8-5.08m.51,27.17h.72a10.55,10.55,0,0,0,7-2.67,8.64,8.64,0,0,0,3-6.55,8.52,8.52,0,0,0-.77-3.61,8.33,8.33,0,0,0-2.22-2.94,10.93,10.93,0,0,0-7.3-2.78h-.53A10.62,10.62,0,0,0,87,42.79a8.66,8.66,0,0,0-2.94,6.7A8.18,8.18,0,0,0,87,55.92a10.88,10.88,0,0,0,7.19,2.72M93.7,30.47a22.31,22.31,0,0,0-14.45,5.32A17.45,17.45,0,0,0,74.63,42a17.9,17.9,0,0,0-1.53,7.32,17.37,17.37,0,0,0,6.17,13.49,22.36,22.36,0,0,0,14.45,5.31h1.55a22.43,22.43,0,0,0,14.47-5.31,17.38,17.38,0,0,0,6.17-13.51A18.27,18.27,0,0,0,114.33,42a17.66,17.66,0,0,0-4.6-6.23,22.39,22.39,0,0,0-14.48-5.32l-.77,0-.78,0Zm.51,27.17a9.86,9.86,0,0,1-6.53-2.47,7.22,7.22,0,0,1-2-2.55,7.12,7.12,0,0,1-.65-3.11,7.62,7.62,0,0,1,2.6-6,9.6,9.6,0,0,1,6.43-2.46h.53a9.94,9.94,0,0,1,6.63,2.52,7.55,7.55,0,0,1,2,2.62,7.43,7.43,0,0,1,.68,3.18,7.59,7.59,0,0,1-2.65,5.8,9.52,9.52,0,0,1-6.35,2.43h-.72Z"
    transform="translate(1.06 1)"
  />
  <path
    class="cls-1"
    d="M144.74,66.88a.5.5,0,0,1-.47-.31l-2.15-5.43H129.36L127,66.58a.51.51,0,0,1-.46.3H116.4a.48.48,0,0,1-.41-.22.49.49,0,0,1,0-.47l14.19-34.12a.5.5,0,0,1,.46-.31h10.48a.5.5,0,0,1,.47.31l13.92,34.12a.52.52,0,0,1-.05.47.5.5,0,0,1-.42.22Zm-5.55-13.49-3.43-9.1-3.34,9.1Z"
    transform="translate(1.06 1)"
  />
  <path
    class="cls-2"
    d="M141.07,32.26,155,66.38H144.74l-2.28-5.74H129l-2.5,5.74H116.4l14.19-34.12h10.48M131.7,53.89h8.22l-4.17-11-4.05,11m9.37-22.63H130.59a1,1,0,0,0-.92.61L115.48,66a1,1,0,0,0,.09.94,1,1,0,0,0,.83.44h10.14a1,1,0,0,0,.92-.6l2.23-5.14h12.09l2,5.11a1,1,0,0,0,.93.63H155a1,1,0,0,0,.83-.44,1,1,0,0,0,.1-.94L142,31.88a1,1,0,0,0-.93-.62Zm-7.93,21.63,2.63-7.17,2.7,7.17Z"
    transform="translate(1.06 1)"
  />
  <path
    class="cls-1"
    d="M172.34,67.67l-1.16,0h-.46a25.32,25.32,0,0,1-8.62-1.51,22.15,22.15,0,0,1-6.24-3.67.51.51,0,0,1-.08-.69l4.82-6.42a.51.51,0,0,1,.37-.2h0a.51.51,0,0,1,.37.15,13.86,13.86,0,0,0,3.75,2.78,11.45,11.45,0,0,0,4.76,1.07h.4a7.42,7.42,0,0,0,3.42-.84,2.48,2.48,0,0,0,.12-4.48,8.93,8.93,0,0,0-3.64-.79l-.65,0h-3.65a.5.5,0,0,1-.5-.5V45.71a.5.5,0,0,1,.5-.5h2.39a7.59,7.59,0,0,0,.92,0,8.19,8.19,0,0,0,4.57-1.39,2.43,2.43,0,0,0,.52-.76,2.18,2.18,0,0,0,.19-1,2.47,2.47,0,0,0-.33-1.15,2.39,2.39,0,0,0-.86-.84,5.94,5.94,0,0,0-3-.81h-.42a9.47,9.47,0,0,0-4,.88A16,16,0,0,0,163,42.06a.57.57,0,0,1-.31.1h-.09a.5.5,0,0,1-.34-.24l-3.71-6.43a.49.49,0,0,1,.17-.67,25,25,0,0,1,13.15-3.76c.33,0,.67,0,1,0a15,15,0,0,1,9.26,3.21,8.5,8.5,0,0,1,2.27,3.09,8.63,8.63,0,0,1,.69,3.75,8.33,8.33,0,0,1-1.71,5.2,8.77,8.77,0,0,1-2.71,2.4,11.45,11.45,0,0,1,3.31,1.93,8,8,0,0,1,2.1,2.74,7.84,7.84,0,0,1,.73,3.37,9.68,9.68,0,0,1-4.89,8.52A19.84,19.84,0,0,1,172.34,67.67Z"
    transform="translate(1.06 1)"
  />
  <path
    class="cls-2"
    d="M172.82,31.52a14.49,14.49,0,0,1,9,3.1,8.06,8.06,0,0,1,2.77,6.43A7.85,7.85,0,0,1,182.93,46a8.3,8.3,0,0,1-3.42,2.7v.16A10.8,10.8,0,0,1,183.6,51a7.43,7.43,0,0,1,2.66,5.73,9.16,9.16,0,0,1-4.63,8.08,19.24,19.24,0,0,1-9.28,2.38q-.57,0-1.14,0h-.49a24.85,24.85,0,0,1-8.45-1.48,21.4,21.4,0,0,1-6.09-3.59L161,55.65a14.27,14.27,0,0,0,3.89,2.87,11.7,11.7,0,0,0,5,1.13h.4a7.88,7.88,0,0,0,3.65-.9,3,3,0,0,0,1.27-1.15,3.05,3.05,0,0,0,.45-1.66,2.86,2.86,0,0,0-.45-1.5A2.8,2.8,0,0,0,174,53.4a9.2,9.2,0,0,0-3.86-.85l-.69,0h-3.61V45.71h2.39c.31,0,.61,0,.91,0A8.69,8.69,0,0,0,174,44.28a2.8,2.8,0,0,0,.7-1,2.85,2.85,0,0,0,.23-1.18,2.81,2.81,0,0,0-.41-1.4,2.85,2.85,0,0,0-1-1,6.41,6.41,0,0,0-3.24-.88h-.42a10,10,0,0,0-4.2.93,16.77,16.77,0,0,0-3,1.88l-3.72-6.43a24,24,0,0,1,5.1-2.39,24.29,24.29,0,0,1,7.79-1.29h0l1,0m0-1c-.33,0-.67,0-1,0a25.58,25.58,0,0,0-8.11,1.34,25.22,25.22,0,0,0-5.31,2.49,1,1,0,0,0-.33,1.35l3.71,6.43a1,1,0,0,0,.67.48.68.68,0,0,0,.2,0,1,1,0,0,0,.61-.21,16.05,16.05,0,0,1,2.84-1.77,9,9,0,0,1,3.77-.83h.42a5.46,5.46,0,0,1,2.73.74,1.85,1.85,0,0,1,.69.67,1.92,1.92,0,0,1,.26.91,1.65,1.65,0,0,1-.15.75,1.67,1.67,0,0,1-.4.58,7.67,7.67,0,0,1-4.24,1.27,7.14,7.14,0,0,1-.8,0h-2.5a1,1,0,0,0-1,1v6.87a1,1,0,0,0,1,1h3.69l.61,0a8.32,8.32,0,0,1,3.44.75,1.92,1.92,0,0,1,.74.68,2,2,0,0,1,.29,1,2.09,2.09,0,0,1-.3,1.12,2.07,2.07,0,0,1-.86.77,6.88,6.88,0,0,1-3.21.8h-.35a10.94,10.94,0,0,1-4.61-1A13.33,13.33,0,0,1,161.73,55a1,1,0,0,0-.72-.3h-.07a1,1,0,0,0-.73.4l-4.83,6.42a1,1,0,0,0,.16,1.37,22.28,22.28,0,0,0,6.38,3.75,25.69,25.69,0,0,0,8.8,1.55h.47c.39,0,.77,0,1.16,0a20.33,20.33,0,0,0,9.76-2.5,10.15,10.15,0,0,0,5.15-9,8.42,8.42,0,0,0-3-6.48,11.76,11.76,0,0,0-2.55-1.63,9.26,9.26,0,0,0,2-2,8.87,8.87,0,0,0,1.81-5.51,9,9,0,0,0-3.11-7.19,15.55,15.55,0,0,0-9.61-3.35Z"
    transform="translate(1.06 1)"
  />
  <path
    class="cls-1"
    d="M216,66.88a.5.5,0,0,1-.5-.5V46.59L202.59,66.65a.48.48,0,0,1-.42.23h-9.81a.5.5,0,0,1-.5-.5V32.26a.5.5,0,0,1,.5-.5H202a.5.5,0,0,1,.5.5V52.05L215.44,32a.52.52,0,0,1,.42-.23h9.82a.5.5,0,0,1,.5.5V66.38a.5.5,0,0,1-.5.5Z"
    transform="translate(1.06 1)"
  />
  <path
    class="cls-2"
    d="M225.68,32.26V66.38H216V44.89L202.17,66.38h-9.81V32.26H202V53.75l13.85-21.49h9.82m0-1h-9.82a1,1,0,0,0-.84.46L203,50.35V32.26a1,1,0,0,0-1-1h-9.65a1,1,0,0,0-1,1V66.38a1,1,0,0,0,1,1h9.81a1,1,0,0,0,.84-.46l12-18.63V66.38a1,1,0,0,0,1,1h9.64a1,1,0,0,0,1-1V32.26a1,1,0,0,0-1-1Z"
    transform="translate(1.06 1)"
  />
  <path
    class="cls-1"
    d="M251,67.65a21,21,0,0,1-13.9-5.25,17.89,17.89,0,0,1-4.25-5.94,16.57,16.57,0,0,1,0-14A18.93,18.93,0,0,1,237,36.6a20,20,0,0,1,13.77-5.46h.56a24.89,24.89,0,0,1,8.81,1.77.51.51,0,0,1,.32.46V44a.51.51,0,0,1-.33.47.47.47,0,0,1-.17,0,.49.49,0,0,1-.38-.18A10,10,0,0,0,256,41.61a9.91,9.91,0,0,0-4.12-.88h-.59a9.52,9.52,0,0,0-6,2.15,8.47,8.47,0,0,0-2.28,3,8.36,8.36,0,0,0-.75,3.65A8,8,0,0,0,243,53a7.89,7.89,0,0,0,2.13,2.85,9.58,9.58,0,0,0,6.17,2.26h.36a10.91,10.91,0,0,0,4.38-.91,10.75,10.75,0,0,0,3.64-2.58.52.52,0,0,1,.37-.16.57.57,0,0,1,.18,0,.51.51,0,0,1,.32.47V65.45a.5.5,0,0,1-.33.47,27.77,27.77,0,0,1-8.46,1.72Z"
    transform="translate(1.06 1)"
  />
  <path
    class="cls-2"
    d="M250.81,31.64h.54A24.65,24.65,0,0,1,260,33.38V44a10.56,10.56,0,0,0-8.09-3.75h-.59A10,10,0,0,0,245,42.5a8.78,8.78,0,0,0-3.22,7,8.49,8.49,0,0,0,3,6.75,10.09,10.09,0,0,0,6.49,2.37h.38a11.36,11.36,0,0,0,4.56-.95A11.51,11.51,0,0,0,260,55V65.45a27.51,27.51,0,0,1-8.31,1.69H251A20.59,20.59,0,0,1,237.38,62a17.66,17.66,0,0,1-4.13-5.77,16.13,16.13,0,0,1,0-13.54A18.41,18.41,0,0,1,237.38,37a19.59,19.59,0,0,1,13.43-5.33m0-1a20.51,20.51,0,0,0-14.11,5.6,19.29,19.29,0,0,0-4.36,6.07,17.08,17.08,0,0,0,0,14.37,18.23,18.23,0,0,0,4.36,6.08A21.52,21.52,0,0,0,251,68.15h.77a28.27,28.27,0,0,0,8.63-1.75,1,1,0,0,0,.65-.94V55a1,1,0,0,0-.64-.93A.89.89,0,0,0,260,54a1,1,0,0,0-.73.32,10.17,10.17,0,0,1-3.48,2.46,10.28,10.28,0,0,1-4.16.87h-.38a9,9,0,0,1-5.84-2.14,7.45,7.45,0,0,1-2-2.67,7.56,7.56,0,0,1-.63-3.28v-.06a7.82,7.82,0,0,1,2.85-6.21,9,9,0,0,1,5.7-2h.59a9.61,9.61,0,0,1,3.92.83,9.77,9.77,0,0,1,3.41,2.56A1,1,0,0,0,260,45a.83.83,0,0,0,.34-.07A1,1,0,0,0,261,44V33.38a1,1,0,0,0-.63-.93,25.51,25.51,0,0,0-9-1.8Z"
    transform="translate(1.06 1)"
  />
  <path fill="url(#id_1)"
    d="M30.89,67.78a.3.3,0,0,1-.13,0c-3.75-1-7-3.18-10.09-5.28-1.53-1-3.11-2.1-4.73-3-1.78-1.17-3.63-2.26-5.41-3.31a84.52,84.52,0,0,1-8.34-5.39A7.55,7.55,0,0,1,0,47.7,7.69,7.69,0,0,1-.5,44V18.79a.52.52,0,0,1,.16-.37A.53.53,0,0,1,0,18.29H0c3.61.33,6.92,1.78,10.12,3.19,1.63.72,3.32,1.47,5,2,.84.38,1.67.71,2.52,1.05,3.75,1.49,8,3.19,9.45,7.46,1,2.9,1.84,5.72,2.67,8.46.45,1.46.9,2.93,1.37,4.4.93-3.54,1.69-7.17,2.44-10.69.6-2.83,1.22-5.76,1.91-8.62,1.06-4.4,4.71-6.66,8.25-8.85.82-.51,1.63-1,2.39-1.54,2-1.18,3.93-2.45,5.82-3.69A94.46,94.46,0,0,1,62.31,5.37a.41.41,0,0,1,.21,0,.5.5,0,0,1,.27.07.51.51,0,0,1,.23.43c0,3.88,0,7.77,0,11.65,0,7.65.05,15.56,0,23.34.4,3.13-2.18,5.13-4.26,6.73l-.92.73c-3.18,2.4-6.33,4.91-9.37,7.34C43.33,59.7,38,63.94,32.46,67.7a.57.57,0,0,1-.28.08.47.47,0,0,1-.3-.1.5.5,0,0,1-.18-.55A150.72,150.72,0,0,1,39.77,48c2.4-5,4.88-10.22,6.84-15.56-1.76,2.62-3.43,5.3-5.06,7.92A144.75,144.75,0,0,1,31.39,55.25a.49.49,0,0,1-.39.19.45.45,0,0,1-.16,0,.51.51,0,0,1-.3-.29,70.45,70.45,0,0,1-6.6-6.68c-1.37-1.52-2.77-3.07-4.25-4.53,2.31,5.55,5.18,10.92,8,16.14,1.22,2.29,2.49,4.66,3.69,7a.52.52,0,0,1-.06.55A.5.5,0,0,1,30.89,67.78Z"
    transform="translate(1.06 1)"
  />
  <path
    class="cls-1"
    d="M1.65,93.09a.5.5,0,0,1-.5-.5V78.32a.5.5,0,0,1,.5-.5H8.8a.5.5,0,0,1,.5.5v2.05a.5.5,0,0,1-.5.5H4.33V92.59a.5.5,0,0,1-.5.5Z"
    transform="translate(1.06 1)"
  />
  <path
    class="cls-2"
    d="M8.8,78.32v2.05h-5V92.59H1.65V78.32H8.8m0-1H1.65a1,1,0,0,0-1,1V92.59a1,1,0,0,0,1,1H3.83a1,1,0,0,0,1-1V81.37h4a1,1,0,0,0,1-1V78.32a1,1,0,0,0-1-1Z"
    transform="translate(1.06 1)"
  />
  <path
    class="cls-1"
    d="M18.92,93.09a.51.51,0,0,1-.46-.3l-1.37-3.14H11.65L10.22,92.8a.5.5,0,0,1-.46.29H7.41A.5.5,0,0,1,7,92.86a.46.46,0,0,1,0-.48l7.1-15.11a.51.51,0,0,1,.45-.29h0a.52.52,0,0,1,.45.3l6.76,15.11a.47.47,0,0,1,0,.47.5.5,0,0,1-.42.23Zm-3.14-6.5-1.36-3.11L13,86.59Z"
    transform="translate(1.06 1)"
  />
  <path
    class="cls-2"
    d="M14.51,77.48l6.76,15.11H18.92l-1.5-3.44h-6.1L9.76,92.59H7.41l7.1-15.11m-2.29,9.61h4.32l-2.11-4.83-2.21,4.83m2.29-10.61a1,1,0,0,0-.9.58L6.5,92.17a1,1,0,0,0,.91,1.42H9.76a1,1,0,0,0,.91-.59L12,90.15h4.8L18,93a1,1,0,0,0,.92.6h2.35a1,1,0,0,0,.84-.46,1,1,0,0,0,.08-.95l-6.77-15.1a1,1,0,0,0-.9-.6Zm-.73,9.61.63-1.38.6,1.38Z"
    transform="translate(1.06 1)"
  />
  <path
    class="cls-1"
    d="M23.07,93.09a.5.5,0,0,1-.5-.5V78.32a.5.5,0,0,1,.5-.5h3.15a6.14,6.14,0,0,1,3.4.85,4.37,4.37,0,0,1,1.48,1.71,4.86,4.86,0,0,1,.52,2.18,4.43,4.43,0,0,1-1.57,3.5,5.68,5.68,0,0,1-3.81,1.23h-.49v5.3a.5.5,0,0,1-.5.5Zm3.17-8.81A2.63,2.63,0,0,0,28,83.79a1.59,1.59,0,0,0,.53-1.26,1.91,1.91,0,0,0-.08-.54,1.6,1.6,0,0,0-.29-.54,1.37,1.37,0,0,0-.63-.43,3.76,3.76,0,0,0-1.3-.19h-.47v3.45Z"
    transform="translate(1.06 1)"
  />
  <path
    class="cls-2"
    d="M26.22,78.32a5.58,5.58,0,0,1,3.12.77,3.86,3.86,0,0,1,1.32,1.51,4.44,4.44,0,0,1,.46,2,4,4,0,0,1-1.39,3.12,5.24,5.24,0,0,1-3.49,1.11h-1v5.8H23.07V78.32h3.15m-1,6.46h1a3.06,3.06,0,0,0,2.07-.61A2.06,2.06,0,0,0,29,82.53a2.15,2.15,0,0,0-.1-.68,2.34,2.34,0,0,0-.36-.7,1.89,1.89,0,0,0-.87-.6,4.46,4.46,0,0,0-1.47-.22h-1v4.45m1-7.46H23.07a1,1,0,0,0-1,1V92.59a1,1,0,0,0,1,1h2.18a1,1,0,0,0,1-1v-4.8a6.15,6.15,0,0,0,4.12-1.35,4.9,4.9,0,0,0,1.75-3.88,5.34,5.34,0,0,0-.57-2.41,4.86,4.86,0,0,0-1.65-1.89,6.52,6.52,0,0,0-3.68-.94Zm0,6.46V81.33a3.26,3.26,0,0,1,1.09.16.94.94,0,0,1,.41.25,1.69,1.69,0,0,1,.22.4,1.6,1.6,0,0,1,.05.39,1,1,0,0,1-.36.88,2.19,2.19,0,0,1-1.41.37Z"
    transform="translate(1.06 1)"
  />
  <path
    class="cls-1"
    d="M40.29,93.75a.49.49,0,0,1-.45-.29L36.4,85.68l-1.22,7a.49.49,0,0,1-.49.41H32.46a.49.49,0,0,1-.38-.18A.48.48,0,0,1,32,92.5l3-15.35a.51.51,0,0,1,.43-.4h.06a.52.52,0,0,1,.46.29l4.51,10.07L45,77a.49.49,0,0,1,.45-.29h.06a.5.5,0,0,1,.43.41l2.7,15.34a.5.5,0,0,1-.11.41.48.48,0,0,1-.38.18H45.9a.49.49,0,0,1-.49-.42l-1.18-7-3.48,7.76a.49.49,0,0,1-.45.29Z"
    transform="translate(1.06 1)"
  />
  <path
    class="cls-2"
    d="M45.43,77.25l2.7,15.34H45.9L44.45,84,40.3,93.25,36.19,84l-1.5,8.62H32.46l3-15.34,5,11.08,5-11.08m0-1a1,1,0,0,0-.91.59L40.43,85.9l-4.06-9.06a1,1,0,0,0-.91-.59h-.11a1,1,0,0,0-.87.8l-3,15.34a1,1,0,0,0,.21.83,1,1,0,0,0,.77.36h2.23a1,1,0,0,0,1-.83l.94-5.37,2.77,6.27a1,1,0,0,0,.91.59h0a1,1,0,0,0,.91-.59L44,87.41l.91,5.35a1,1,0,0,0,1,.83h2.23a1,1,0,0,0,1-1.17L46.42,77.08a1,1,0,0,0-.86-.82Z"
    transform="translate(1.06 1)"
  />
  <path
    class="cls-1"
    d="M57.86,93.37a7.76,7.76,0,1,1,5.66-2.27A7.69,7.69,0,0,1,57.86,93.37Zm0-12.8a4.55,4.55,0,0,0-3.41,1.36,5.36,5.36,0,0,0,0,7.07,5,5,0,0,0,6.82,0,5.36,5.36,0,0,0,0-7.07A4.53,4.53,0,0,0,57.86,80.57Z"
    transform="translate(1.06 1)"
  />
  <path
    class="cls-2"
    d="M57.86,78.06a7.41,7.41,0,1,1-5.3,12.69,7.41,7.41,0,0,1,5.3-12.69m0,12.8a5.08,5.08,0,0,0,3.77-1.51,5.87,5.87,0,0,0,0-7.77,5.45,5.45,0,0,0-7.53,0,5.84,5.84,0,0,0,0,7.77,5.06,5.06,0,0,0,3.76,1.51m0-13.8a8.24,8.24,0,1,0,6,2.41,8.19,8.19,0,0,0-6-2.41Zm0,12.8a4.06,4.06,0,0,1-3-1.21,4.86,4.86,0,0,1,0-6.37,4.45,4.45,0,0,1,6.1,0,4.86,4.86,0,0,1,0,6.37,4,4,0,0,1-3,1.21Z"
    transform="translate(1.06 1)"
  />
  <path
    class="cls-1"
    d="M76.33,93.09a.5.5,0,0,1-.5-.5V86.52H70.71v6.07a.5.5,0,0,1-.5.5H68a.5.5,0,0,1-.5-.5V78.32a.5.5,0,0,1,.5-.5h2.18a.5.5,0,0,1,.5.5v5.15h5.12V78.32a.5.5,0,0,1,.5-.5h2.18a.5.5,0,0,1,.5.5V92.59a.5.5,0,0,1-.5.5Z"
    transform="translate(1.06 1)"
  />
  <path
    class="cls-2"
    d="M78.51,78.32V92.59H76.33V86H70.21v6.57H68V78.32h2.18V84h6.12V78.32h2.18m0-1H76.33a1,1,0,0,0-1,1V83H71.21V78.32a1,1,0,0,0-1-1H68a1,1,0,0,0-1,1V92.59a1,1,0,0,0,1,1h2.18a1,1,0,0,0,1-1V87h4.12v5.57a1,1,0,0,0,1,1h2.18a1,1,0,0,0,1-1V78.32a1,1,0,0,0-1-1Z"
    transform="translate(1.06 1)"
  />
  <path
    class="cls-1"
    d="M81.93,93.73a.57.57,0,0,1-.18,0,.51.51,0,0,1-.32-.47V78.32a.5.5,0,0,1,.5-.5h2.19a.5.5,0,0,1,.5.5v8.39l8.76-9.33a.49.49,0,0,1,.37-.16.57.57,0,0,1,.18,0,.51.51,0,0,1,.32.47V92.59a.5.5,0,0,1-.5.5H91.56a.5.5,0,0,1-.5-.5V84.25L82.3,93.58A.51.51,0,0,1,81.93,93.73Z"
    transform="translate(1.06 1)"
  />
  <path
    class="cls-2"
    d="M93.75,77.72V92.59H91.56V83L81.93,93.23V78.32h2.19V88l9.63-10.25m0-1A1,1,0,0,0,93,77l-7.9,8.4V78.32a1,1,0,0,0-1-1H81.93a1,1,0,0,0-1,1V93.23a1,1,0,0,0,.64.93.92.92,0,0,0,.36.07,1,1,0,0,0,.73-.31l7.9-8.41v7.08a1,1,0,0,0,1,1h2.19a1,1,0,0,0,1-1V77.72a1,1,0,0,0-.64-.93.92.92,0,0,0-.36-.07Z"
    transform="translate(1.06 1)"
  />
  <path
    class="cls-1"
    d="M103,93.09a.5.5,0,0,1-.5-.5V87.75L99,92.87a.48.48,0,0,1-.41.22h-2.7a.5.5,0,0,1-.44-.27.49.49,0,0,1,0-.52L99.27,87a4.61,4.61,0,0,1-1.68-.92,4.34,4.34,0,0,1-1.39-3.42,4.7,4.7,0,0,1,1.22-3.31A4.36,4.36,0,0,1,99,78.26a5.63,5.63,0,0,1,1.43-.4c.34,0,.76,0,1.26,0h3.51a.5.5,0,0,1,.5.5V92.59a.5.5,0,0,1-.5.5Zm-1.07-12.26a3.12,3.12,0,0,0-2.09.52,1.68,1.68,0,0,0-.54,1.29,1.43,1.43,0,0,0,.6,1.3,3.47,3.47,0,0,0,1.9.43h.7V80.83Z"
    transform="translate(1.06 1)"
  />
  <path
    class="cls-2"
    d="M105.17,78.32V92.59H103V86.88h-.52l-3.89,5.71h-2.7l4.24-6a4,4,0,0,1-2.2-1,3.81,3.81,0,0,1-1.22-3,4.17,4.17,0,0,1,1.09-3,3.61,3.61,0,0,1,1.37-.94,4.6,4.6,0,0,1,1.28-.37c.33,0,.74,0,1.22,0h3.51m-3.38,6.55H103V80.33h-1.07a3.51,3.51,0,0,0-2.44.66,2.16,2.16,0,0,0-.69,1.65,1.94,1.94,0,0,0,.82,1.71,3.84,3.84,0,0,0,2.18.52m3.38-7.55h-3.51a12,12,0,0,0-1.3.05,5.47,5.47,0,0,0-1.58.43A4.79,4.79,0,0,0,97.06,79a5.14,5.14,0,0,0-1.36,3.65,4.78,4.78,0,0,0,1.56,3.79,5,5,0,0,0,1.22.79L95.07,92a1,1,0,0,0-.07,1,1,1,0,0,0,.88.54h2.7a1,1,0,0,0,.83-.44L102,89.37v3.22a1,1,0,0,0,1,1h2.18a1,1,0,0,0,1-1V78.32a1,1,0,0,0-1-1Zm-3.38,6.55a3,3,0,0,1-1.63-.35.92.92,0,0,1-.37-.88,1.19,1.19,0,0,1,.37-.92c.13-.12.54-.39,1.76-.39H102v2.54Z"
    transform="translate(1.06 1)"
  />
  <path
    class="cls-1"
    d="M121.88,93.09a.5.5,0,0,1-.5-.5V80.87h-5.12V92.59a.5.5,0,0,1-.5.5h-2.18a.5.5,0,0,1-.5-.5V78.32a.5.5,0,0,1,.5-.5h10.48a.5.5,0,0,1,.5.5V92.59a.5.5,0,0,1-.5.5Z"
    transform="translate(1.06 1)"
  />
  <path
    class="cls-2"
    d="M124.06,78.32V92.59h-2.18V80.37h-6.12V92.59h-2.18V78.32h10.48m0-1H113.58a1,1,0,0,0-1,1V92.59a1,1,0,0,0,1,1h2.18a1,1,0,0,0,1-1V81.37h4.12V92.59a1,1,0,0,0,1,1h2.18a1,1,0,0,0,1-1V78.32a1,1,0,0,0-1-1Z"
    transform="translate(1.06 1)"
  />
  <path
    class="cls-1"
    d="M127.49,93.09a.5.5,0,0,1-.5-.5V78.32a.5.5,0,0,1,.5-.5h3.14a6.17,6.17,0,0,1,3.41.85,4.37,4.37,0,0,1,1.48,1.71,4.85,4.85,0,0,1,.51,2.18,4.43,4.43,0,0,1-1.56,3.5,5.71,5.71,0,0,1-3.82,1.23h-.48v5.3a.5.5,0,0,1-.5.5Zm3.16-8.81a2.59,2.59,0,0,0,1.75-.49,1.56,1.56,0,0,0,.54-1.26,1.91,1.91,0,0,0-.08-.54,2.28,2.28,0,0,0-.29-.55,1.42,1.42,0,0,0-.64-.42,4,4,0,0,0-1.3-.19h-.46v3.45Z"
    transform="translate(1.06 1)"
  />
  <path
    class="cls-2"
    d="M130.63,78.32a5.6,5.6,0,0,1,3.13.77,3.76,3.76,0,0,1,1.31,1.51,4.31,4.31,0,0,1,.46,2,3.92,3.92,0,0,1-1.39,3.12,5.2,5.2,0,0,1-3.49,1.11h-1v5.8h-2.18V78.32h3.14m-1,6.46h1a3.08,3.08,0,0,0,2.08-.61,2.06,2.06,0,0,0,.71-1.64,2.48,2.48,0,0,0-.1-.68,2.59,2.59,0,0,0-.36-.7,1.89,1.89,0,0,0-.87-.6,4.48,4.48,0,0,0-1.48-.22h-1v4.45m1-7.46h-3.14a1,1,0,0,0-1,1V92.59a1,1,0,0,0,1,1h2.18a1,1,0,0,0,1-1v-4.8a6.17,6.17,0,0,0,4.12-1.35,4.89,4.89,0,0,0,1.74-3.88,5.46,5.46,0,0,0-.56-2.41,4.86,4.86,0,0,0-1.65-1.89,6.54,6.54,0,0,0-3.69-.94Zm0,6.46V81.33a3.3,3.3,0,0,1,1.09.16c.28.11.38.21.4.25a1.37,1.37,0,0,1,.22.4,1.23,1.23,0,0,1,.06.39,1.05,1.05,0,0,1-.36.88,2.2,2.2,0,0,1-1.41.37Z"
    transform="translate(1.06 1)"
  />
  <path
    class="cls-1"
    d="M144.5,93.37a7.74,7.74,0,1,1,5.66-2.27A7.69,7.69,0,0,1,144.5,93.37Zm0-12.8a4.53,4.53,0,0,0-3.41,1.36,5.36,5.36,0,0,0,0,7.07,5,5,0,0,0,6.82,0,5.36,5.36,0,0,0,0-7.07A4.55,4.55,0,0,0,144.5,80.57Z"
    transform="translate(1.06 1)"
  />
  <path
    class="cls-2"
    d="M144.5,78.06a7.23,7.23,0,0,1,7.42,7.41,7.16,7.16,0,0,1-2.11,5.28,7.49,7.49,0,1,1-5.31-12.69m0,12.8a5,5,0,0,0,3.76-1.51,5.84,5.84,0,0,0,0-7.77,5.45,5.45,0,0,0-7.53,0,5.87,5.87,0,0,0,0,7.77,5.08,5.08,0,0,0,3.77,1.51m0-13.8a8.24,8.24,0,1,0,6,2.41,8.19,8.19,0,0,0-6-2.41Zm0,12.8a4,4,0,0,1-3.05-1.21,4.86,4.86,0,0,1,0-6.37,4.45,4.45,0,0,1,6.1,0,4.86,4.86,0,0,1,0,6.37,4.06,4.06,0,0,1-3.05,1.21Z"
    transform="translate(1.06 1)"
  />
  <path
    class="cls-1"
    d="M161.32,93.37a7.76,7.76,0,0,1-7.84-7.86,7.85,7.85,0,0,1,2.44-6,7.72,7.72,0,0,1,5.5-2,7.37,7.37,0,0,1,4.08,1.11.48.48,0,0,1,.23.42v2.57a.49.49,0,0,1-.29.45.54.54,0,0,1-.21,0,.51.51,0,0,1-.33-.13,5.14,5.14,0,0,0-3.54-1.46A4.39,4.39,0,0,0,158,82a4.92,4.92,0,0,0-1.31,3.56A4.76,4.76,0,0,0,158,89a4.44,4.44,0,0,0,3.38,1.38,5,5,0,0,0,3.51-1.51.49.49,0,0,1,.34-.14.45.45,0,0,1,.2,0,.51.51,0,0,1,.3.46V91.8a.51.51,0,0,1-.24.43A8,8,0,0,1,161.32,93.37Z"
    transform="translate(1.06 1)"
  />
  <path
    class="cls-2"
    d="M161.42,78.06a6.87,6.87,0,0,1,3.81,1v2.57a5.64,5.64,0,0,0-3.87-1.59,5,5,0,0,0-3.76,1.53,5.47,5.47,0,0,0-1.44,3.91,5.26,5.26,0,0,0,1.48,3.82,5,5,0,0,0,3.74,1.53,5.46,5.46,0,0,0,3.85-1.65V91.8a7.54,7.54,0,0,1-3.91,1.07A7.27,7.27,0,0,1,154,85.51a7.34,7.34,0,0,1,2.29-5.59,7.19,7.19,0,0,1,5.15-1.86m0-1a8.18,8.18,0,0,0-5.84,2.14,8.31,8.31,0,0,0-2.6,6.31,8.25,8.25,0,0,0,8.34,8.36,8.51,8.51,0,0,0,4.42-1.21,1,1,0,0,0,.49-.86V89.21a1,1,0,0,0-.6-.92,1.1,1.1,0,0,0-.4-.08,1,1,0,0,0-.69.28,4.47,4.47,0,0,1-3.16,1.37,4,4,0,0,1-3-1.23,4.24,4.24,0,0,1-1.2-3.12,4.45,4.45,0,0,1,1.17-3.22,3.94,3.94,0,0,1,3-1.22,4.65,4.65,0,0,1,3.2,1.33,1,1,0,0,0,.67.26,1,1,0,0,0,.41-.09,1,1,0,0,0,.59-.91V79.09a1,1,0,0,0-.46-.84,7.9,7.9,0,0,0-4.35-1.19Z"
    transform="translate(1.06 1)"
  />
  <path
    class="cls-1"
    d="M169.7,93.09a.5.5,0,0,1-.5-.5V80.87h-2.77a.5.5,0,0,1-.5-.5V78.32a.5.5,0,0,1,.5-.5h8.73a.5.5,0,0,1,.5.5v2.05a.5.5,0,0,1-.5.5h-2.77V92.59a.5.5,0,0,1-.5.5Z"
    transform="translate(1.06 1)"
  />
  <path
    class="cls-2"
    d="M175.16,78.32v2.05h-3.27V92.59H169.7V80.37h-3.27V78.32h8.73m0-1h-8.73a1,1,0,0,0-1,1v2.05a1,1,0,0,0,1,1h2.27V92.59a1,1,0,0,0,1,1h2.19a1,1,0,0,0,1-1V81.37h2.27a1,1,0,0,0,1-1V78.32a1,1,0,0,0-1-1Z"
    transform="translate(1.06 1)"
  />
  <path
    class="cls-1"
    d="M177.09,93.09a.5.5,0,0,1-.5-.5V78.32a.5.5,0,0,1,.5-.5h3.14a6.11,6.11,0,0,1,3.4.85,4.31,4.31,0,0,1,1.49,1.71,4.85,4.85,0,0,1,.51,2.18,4.45,4.45,0,0,1-1.56,3.5,5.71,5.71,0,0,1-3.82,1.23h-.48v5.3a.5.5,0,0,1-.5.5Zm3.16-8.81a2.59,2.59,0,0,0,1.75-.49,1.56,1.56,0,0,0,.53-1.26,1.9,1.9,0,0,0-.07-.54,2.28,2.28,0,0,0-.29-.55,1.48,1.48,0,0,0-.64-.42,4,4,0,0,0-1.3-.19h-.46v3.45Z"
    transform="translate(1.06 1)"
  />
  <path
    class="cls-2"
    d="M180.23,78.32a5.64,5.64,0,0,1,3.13.77,3.83,3.83,0,0,1,1.31,1.51,4.31,4.31,0,0,1,.46,2,3.92,3.92,0,0,1-1.39,3.12,5.2,5.2,0,0,1-3.49,1.11h-1v5.8h-2.18V78.32h3.14m-1,6.46h1a3.08,3.08,0,0,0,2.08-.61,2.05,2.05,0,0,0,.7-1.64,2.48,2.48,0,0,0-.09-.68,2.66,2.66,0,0,0-.37-.7,1.81,1.81,0,0,0-.86-.6,4.48,4.48,0,0,0-1.48-.22h-1v4.45m1-7.46h-3.14a1,1,0,0,0-1,1V92.59a1,1,0,0,0,1,1h2.18a1,1,0,0,0,1-1v-4.8a6.19,6.19,0,0,0,4.12-1.35,4.89,4.89,0,0,0,1.74-3.88,5.46,5.46,0,0,0-.56-2.41,4.94,4.94,0,0,0-1.65-1.89,6.54,6.54,0,0,0-3.69-.94Zm0,6.46V81.33a3.3,3.3,0,0,1,1.09.16.82.82,0,0,1,.4.25,1.37,1.37,0,0,1,.22.39,1.33,1.33,0,0,1,.05.4,1,1,0,0,1-.36.88,2.15,2.15,0,0,1-1.4.37Z"
    transform="translate(1.06 1)"
  />
  <path
    class="cls-1"
    d="M196.6,93.09a.51.51,0,0,1-.46-.3l-1.37-3.14h-5.44L187.9,92.8a.5.5,0,0,1-.46.29h-2.35a.5.5,0,0,1-.42-.23.49.49,0,0,1,0-.48l7.1-15.11a.51.51,0,0,1,.45-.29h0a.52.52,0,0,1,.45.3l6.76,15.11a.47.47,0,0,1,0,.47.5.5,0,0,1-.42.23Zm-3.14-6.5-1.36-3.11-1.42,3.11Z"
    transform="translate(1.06 1)"
  />
  <path
    class="cls-2"
    d="M192.19,77.48,199,92.59H196.6l-1.5-3.44H189l-1.56,3.44h-2.35l7.1-15.11m-2.29,9.61h4.33l-2.12-4.83-2.21,4.83m2.29-10.61a1,1,0,0,0-.9.58l-7.11,15.11a1,1,0,0,0,.91,1.42h2.35a1,1,0,0,0,.91-.59l1.3-2.85h4.8L195.68,93a1,1,0,0,0,.92.6H199a1,1,0,0,0,.92-1.41l-6.76-15.1a1,1,0,0,0-.91-.6Zm-.73,9.61.63-1.38.61,1.38Z"
    transform="translate(1.06 1)"
  />
  <path
    class="cls-1"
    d="M209.05,93.09a.5.5,0,0,1-.5-.5V86.52h-5.12v6.07a.5.5,0,0,1-.5.5h-2.18a.5.5,0,0,1-.5-.5V78.32a.5.5,0,0,1,.5-.5h2.18a.5.5,0,0,1,.5.5v5.15h5.12V78.32a.5.5,0,0,1,.5-.5h2.19a.5.5,0,0,1,.5.5V92.59a.5.5,0,0,1-.5.5Z"
    transform="translate(1.06 1)"
  />
  <path
    class="cls-2"
    d="M211.24,78.32V92.59h-2.19V86h-6.12v6.57h-2.18V78.32h2.18V84h6.12V78.32h2.19m0-1h-2.19a1,1,0,0,0-1,1V83h-4.12V78.32a1,1,0,0,0-1-1h-2.18a1,1,0,0,0-1,1V92.59a1,1,0,0,0,1,1h2.18a1,1,0,0,0,1-1V87h4.12v5.57a1,1,0,0,0,1,1h2.19a1,1,0,0,0,1-1V78.32a1,1,0,0,0-1-1Z"
    transform="translate(1.06 1)"
  />
  <path
    class="cls-1"
    d="M221.31,93.37a7.78,7.78,0,0,1-7.84-7.86,7.85,7.85,0,0,1,2.45-6,7.69,7.69,0,0,1,5.5-2,7.4,7.4,0,0,1,4.08,1.11.5.5,0,0,1,.23.42v2.57a.5.5,0,0,1-.3.45.46.46,0,0,1-.2,0,.55.55,0,0,1-.34-.13,5.11,5.11,0,0,0-3.53-1.46A4.43,4.43,0,0,0,218,82a4.91,4.91,0,0,0-1.3,3.56A4.75,4.75,0,0,0,218,89a4.46,4.46,0,0,0,3.39,1.38,4.94,4.94,0,0,0,3.5-1.51.52.52,0,0,1,.35-.14.48.48,0,0,1,.2,0,.51.51,0,0,1,.3.46V91.8a.51.51,0,0,1-.24.43A8.06,8.06,0,0,1,221.31,93.37Z"
    transform="translate(1.06 1)"
  />
  <path
    class="cls-2"
    d="M221.42,78.06a6.87,6.87,0,0,1,3.81,1v2.57a5.64,5.64,0,0,0-3.87-1.59,4.94,4.94,0,0,0-3.76,1.53,5.47,5.47,0,0,0-1.44,3.91,5.29,5.29,0,0,0,1.47,3.82,5,5,0,0,0,3.75,1.53,5.47,5.47,0,0,0,3.85-1.65V91.8a7.55,7.55,0,0,1-3.92,1.07A7.27,7.27,0,0,1,214,85.51a7.37,7.37,0,0,1,2.29-5.59,7.21,7.21,0,0,1,5.16-1.86m0-1a8.16,8.16,0,0,0-5.84,2.14A8.32,8.32,0,0,0,213,85.51a8.27,8.27,0,0,0,8.34,8.36,8.58,8.58,0,0,0,4.43-1.21,1,1,0,0,0,.49-.86V89.21a1,1,0,0,0-.61-.92,1,1,0,0,0-.39-.08,1,1,0,0,0-.69.28,4.47,4.47,0,0,1-3.16,1.37,4,4,0,0,1-3-1.23,4.28,4.28,0,0,1-1.19-3.12,4.45,4.45,0,0,1,1.17-3.22,3.93,3.93,0,0,1,3-1.22,4.67,4.67,0,0,1,3.2,1.33,1,1,0,0,0,.67.26,1,1,0,0,0,.41-.09,1,1,0,0,0,.59-.91V79.09a1,1,0,0,0-.46-.84,7.9,7.9,0,0,0-4.35-1.19Z"
    transform="translate(1.06 1)"
  />
  <path
    class="cls-1"
    d="M229.7,93.09a.5.5,0,0,1-.5-.5V80.87h-2.77a.5.5,0,0,1-.5-.5V78.32a.5.5,0,0,1,.5-.5h8.73a.5.5,0,0,1,.5.5v2.05a.5.5,0,0,1-.5.5h-2.78V92.59a.5.5,0,0,1-.5.5Z"
    transform="translate(1.06 1)"
  />
  <path
    class="cls-2"
    d="M235.16,78.32v2.05h-3.28V92.59H229.7V80.37h-3.27V78.32h8.73m0-1h-8.73a1,1,0,0,0-1,1v2.05a1,1,0,0,0,1,1h2.27V92.59a1,1,0,0,0,1,1h2.18a1,1,0,0,0,1-1V81.37h2.28a1,1,0,0,0,1-1V78.32a1,1,0,0,0-1-1Z"
    transform="translate(1.06 1)"
  />
  <path
    class="cls-1"
    d="M237.08,93.09a.5.5,0,0,1-.5-.5V78.32a.5.5,0,0,1,.5-.5h2.16a9.86,9.86,0,0,1,2.48.25,4.06,4.06,0,0,1,1.8,1,4.2,4.2,0,0,1,1.3,3.19,3.56,3.56,0,0,1-.51,1.95,3.12,3.12,0,0,1-.43.58,4,4,0,0,1,1.14.82,4.2,4.2,0,0,1,1.08,3A4.08,4.08,0,0,1,245,91.54a5.77,5.77,0,0,1-4.36,1.55Zm3.51-3a3,3,0,0,0,1.85-.45A1.42,1.42,0,0,0,243,88.4a1.55,1.55,0,0,0-.43-1.15,2.82,2.82,0,0,0-1.9-.49h-.86V90ZM239.93,84a2,2,0,0,0,1.43-.42,1.71,1.71,0,0,0,.4-1.26,1.32,1.32,0,0,0-.36-1,2,2,0,0,0-1.39-.4h-.24V84Z"
    transform="translate(1.06 1)"
  />
  <path
    class="cls-2"
    d="M239.24,78.32a10,10,0,0,1,2.36.23,3.64,3.64,0,0,1,1.58.88,3.7,3.7,0,0,1,1.14,2.83,3.19,3.19,0,0,1-.43,1.69,2.41,2.41,0,0,1-1.07,1,3.85,3.85,0,0,1,1.84,1,3.69,3.69,0,0,1,.94,2.67,3.6,3.6,0,0,1-.94,2.57,5.28,5.28,0,0,1-4,1.39h-3.58V78.32h2.16m0,6.14h.66a2.5,2.5,0,0,0,1.78-.56,2.15,2.15,0,0,0,.55-1.62,1.81,1.81,0,0,0-.51-1.37,2.42,2.42,0,0,0-1.74-.54h-.74v4.09m0,6.08h1.32a3.39,3.39,0,0,0,2.16-.56,1.9,1.9,0,0,0,.71-1.58,2,2,0,0,0-.58-1.5,3.17,3.17,0,0,0-2.25-.64h-1.36v4.28m0-13.22h-2.16a1,1,0,0,0-1,1V92.59a1,1,0,0,0,1,1h3.58a6.25,6.25,0,0,0,4.72-1.7,5.1,5.1,0,0,0,0-6.62,4.48,4.48,0,0,0-.75-.63l.12-.19a4.07,4.07,0,0,0,.57-2.19,4.71,4.71,0,0,0-1.45-3.56,4.57,4.57,0,0,0-2-1.11,10.45,10.45,0,0,0-2.61-.27Zm1,6.12V81.38a1.28,1.28,0,0,1,.78.25.79.79,0,0,1,.21.65,1.31,1.31,0,0,1-.25.9,1.21,1.21,0,0,1-.74.26Zm0,3.82h.36c1,0,1.42.22,1.56.36a1,1,0,0,1,.27.78.89.89,0,0,1-.33.8,2.44,2.44,0,0,1-1.54.34h-.32V87.26Z"
    transform="translate(1.06 1)"
  />
  <path
    class="cls-1"
    d="M257.56,93.09a.51.51,0,0,1-.46-.3l-1.37-3.14h-5.44l-1.43,3.15a.5.5,0,0,1-.46.29h-2.35a.5.5,0,0,1-.42-.23.49.49,0,0,1,0-.48l7.1-15.11a.51.51,0,0,1,.45-.29h0a.52.52,0,0,1,.45.3l6.76,15.11a.47.47,0,0,1,0,.47.5.5,0,0,1-.42.23Zm-3.14-6.5-1.36-3.11-1.42,3.11Z"
    transform="translate(1.06 1)"
  />
  <path
    class="cls-2"
    d="M253.15,77.48l6.76,15.11h-2.35l-1.5-3.44H250l-1.56,3.44h-2.35l7.1-15.11m-2.29,9.61h4.33l-2.12-4.83-2.21,4.83m2.29-10.61a1,1,0,0,0-.9.58l-7.11,15.11a1,1,0,0,0,.91,1.42h2.35a1,1,0,0,0,.91-.59l1.3-2.85h4.8L256.64,93a1,1,0,0,0,.92.6h2.35a1,1,0,0,0,.92-1.41l-6.76-15.1a1,1,0,0,0-.91-.6Zm-.73,9.61.63-1.38.61,1.38Z"
    transform="translate(1.06 1)"
  />
</svg>
